<svg xmlns="http://www.w3.org/2000/svg" width="54.028" height="39.68" viewBox="0 0 54.028 39.68"><defs><style>.a,.b{fill:#00b0e9;}.b{stroke:#fff;stroke-linecap:round;stroke-linejoin:round;stroke-width:3px;}</style></defs><g transform="translate(1.695 1.694)"><path class="a" d="M44.024,22.8H43.73a8.116,8.116,0,0,0-1.1.049,13.754,13.754,0,0,0-18.5-9.831,13.541,13.541,0,0,0-1.8.869A13.811,13.811,0,0,0,15.449,25.1c-.012.257-.024.5-.024.759,0,.416.024.832.061,1.236,0,.049.012.1.012.135a9.382,9.382,0,0,0,.82,18.694H44.036A11.565,11.565,0,0,0,44.024,22.8Z" transform="translate(-3.053 -7.941)"/><path class="b" d="M27.929,15.223A13.994,13.994,0,1,1,12.707,0,10.884,10.884,0,0,0,27.929,15.223Z" transform="translate(3.887 0) rotate(8)"/></g></svg>