<svg xmlns="http://www.w3.org/2000/svg" width="51.972" height="51.972" viewBox="0 0 51.972 51.972"><defs><style>.a{fill:#2ab45c;}</style></defs><path class="a" d="M31.449,16.814A13.993,13.993,0,1,0,45.441,30.806,14.01,14.01,0,0,0,31.449,16.814Zm0-4a2,2,0,0,0,2-2v-4a2,2,0,1,0-4,0v4A2,2,0,0,0,31.449,12.816Zm0,35.981a2,2,0,0,0-2,2v4a2,2,0,0,0,4,0v-4A2,2,0,0,0,31.449,48.8ZM46.993,18.084l2.827-2.827a2,2,0,1,0-2.827-2.827l-2.827,2.827a2,2,0,1,0,2.827,2.827ZM15.9,43.531l-2.826,2.827A2,2,0,1,0,15.9,49.184l2.827-2.827A2,2,0,0,0,15.9,43.531ZM13.458,30.806a2,2,0,0,0-2-2h-4a2,2,0,1,0,0,4h4A2,2,0,0,0,13.458,30.806Zm41.978-2h-4a2,2,0,1,0,0,4h4a2,2,0,1,0,0-4ZM15.9,18.084a2,2,0,1,0,2.827-2.827L15.9,12.431a2,2,0,0,0-2.827,2.827ZM47,43.526a2,2,0,1,0-2.827,2.827L47,49.179a2,2,0,0,0,2.827-2.827Z" transform="translate(-5.463 -4.82)"/></svg>