<svg xmlns="http://www.w3.org/2000/svg" width="64.94" height="51.955" viewBox="0 0 64.94 51.955"><defs><style>.a{fill:#ffc801;}</style></defs><g transform="translate(0 0)"><path class="a" d="M12.872,4.5h-.041a2.142,2.142,0,0,0-2.137,2.137v4.1a2.142,2.142,0,0,0,2.137,2.137h.041a2.142,2.142,0,0,0,2.137-2.137v-4.1A2.142,2.142,0,0,0,12.872,4.5Z" transform="translate(7.715 -4.5)"/><path class="a" d="M9.647,16.247v-.041A2.142,2.142,0,0,0,7.509,14.07H3.262a2.142,2.142,0,0,0-2.137,2.137v.041a2.142,2.142,0,0,0,2.137,2.137H7.5A2.145,2.145,0,0,0,9.647,16.247Z" transform="translate(-1.125 4.34)"/><path class="a" d="M7.22,13.562a2.138,2.138,0,1,0,3.03-3.016L7.5,7.772a2.141,2.141,0,0,0-1.515-.636h0a2.144,2.144,0,0,0-1.515,3.652Z" transform="translate(1.397 -2.064)"/><path class="a" d="M22.125,7.7a2.141,2.141,0,0,0-1.515-.636h0A2.141,2.141,0,0,0,19.1,7.7l-2.746,2.759a2.147,2.147,0,0,0,0,3.016l.041.041H16.4a2.1,2.1,0,0,0,1.461.582,2.141,2.141,0,0,0,1.515-.636l2.746-2.759A2.131,2.131,0,0,0,22.125,7.7Z" transform="translate(12.367 -2.129)"/><path class="a" d="M8.875,19.216h0a2.141,2.141,0,0,0-1.515.636L4.614,22.625a2.138,2.138,0,1,0,3.03,3.016l2.746-2.773a2.144,2.144,0,0,0-1.515-3.652Z" transform="translate(1.527 9.094)"/></g><path class="a" d="M47.881,23.928h-.325a8.966,8.966,0,0,0-1.217.054A15.2,15.2,0,0,0,25.9,13.12a14.961,14.961,0,0,0-1.988.96,15.259,15.259,0,0,0-7.6,12.39c-.014.284-.027.555-.027.839,0,.46.027.92.068,1.366,0,.054.014.108.014.149a10.366,10.366,0,0,0,.906,20.655H47.895a12.778,12.778,0,0,0-.014-25.551Z" transform="translate(4.506 2.476)"/><path class="a" d="M14.428,29.365v-.041c-.041-.46-.068-.92-.068-1.38,0-.284.014-.568.027-.852A15.5,15.5,0,0,1,22.125,14.5a14.533,14.533,0,0,1,2.015-.974h.014a9.91,9.91,0,1,0-9.725,15.839Z" transform="translate(3.792 0.339)"/></svg>