<svg xmlns="http://www.w3.org/2000/svg" width="47.633" height="52.809" viewBox="0 0 47.633 52.809"><defs><style>.a{fill:#ad4fe1;}.a,.b{stroke:#ad4fe1;stroke-linecap:round;stroke-linejoin:round;stroke-width:4px;}.b{fill:none;}</style></defs><g transform="translate(2 2)"><path class="a" d="M30.333,29.417a9.917,9.917,0,0,0-19.833,0C10.475,29.375,30.333,29.417,30.333,29.417Z" transform="translate(1.4 -5.772)"/><path class="b" d="M18,3V8.795" transform="translate(3.817 -3)"/><path class="b" d="M6.33,15.33l2.816,2.816" transform="translate(0.056 -7.115)"/><path class="b" d="M1.5,27H5.467" transform="translate(-1.5 -3.355)"/><path class="b" d="M31.5,27h3.967" transform="translate(8.166 -3.355)"/><path class="b" d="M27.54,18.146l2.816-2.816" transform="translate(6.89 -7.115)"/><path class="b" d="M13.4,33H1.5" transform="translate(-1.5 -1.422)"/><path class="b" d="M13.4,33H1.5" transform="translate(30.233 -1.422)"/><path class="b" d="M0,0V17.231" transform="translate(21.817 48.809) rotate(180)"/><path class="b" d="M0,7.933,7.933,0l7.933,7.933" transform="translate(29.75 48.809) rotate(180)"/></g></svg>